# xmcd
#
# Track frame offsets: 
#        150
#        12414
#        24612
#        36633
#        46695
#        58668
#        71691
#        83773
#        97142
#        106919
#        116554
#        129866
#        145193
#        157819
#        170593
#        183704
#        195271
#        207904
#        221325
#        233851
#
# Disc length: 3281 seconds
#
# Revision: 1
# Processed by: cddbd v1.5.2PL0 Copyright (c) Steve Scherf et al.
# Submitted via: ExactAudioCopyFreeDBPlugin 1.0
#
DISCID=150ccf14
DTITLE=Johnny Guitar Watson, Big Joe Williams - ABC Of The Blues - Vol
DTITLE=49 Watson, Williams
DYEAR=2010
DGENRE=Blues
TTITLE0=Johnny Guitar Watson - Gangster Of Love
TTITLE1=Johnny Guitar Watson - Too Tired
TTITLE2=Johnny Guitar Watson - Oh Baby
TTITLE3=Johnny Guitar Watson - Motor Head Baby
TTITLE4=Johnny Guitar Watson - Telephone Boogie
TTITLE5=Johnny Guitar Watson - She Moves Me
TTITLE6=Johnny Guitar Watson - One Room Country Shack
TTITLE7=Johnny Guitar Watson - Hot Little Mama
TTITLE8=Johnny Guitar Watson - You've Been Gone Too Long
TTITLE9=Johnny Guitar Watson - Love Bandit (Gangster Of Love)
TTITLE10=Big Joe Williams - Drop Down Blues
TTITLE11=Big Joe Williams - Wanita
TTITLE12=Big Joe Williams - Vitamin A
TTITLE13=Big Joe Williams - Stack Of Dollars
TTITLE14=Big Joe Williams - Wild Cow Moan
TTITLE15=Big Joe Williams - King Biscuit Stomp
TTITLE16=Big Joe Williams - Baby Please Don´t Go
TTITLE17=Big Joe Williams - Houselady Blues
TTITLE18=Big Joe Williams - His Spirit Lives On
TTITLE19=Big Joe Williams - She´s A Married Woman
EXTD=
EXTT0=
EXTT1=
EXTT2=
EXTT3=
EXTT4=
EXTT5=
EXTT6=
EXTT7=
EXTT8=
EXTT9=
EXTT10=
EXTT11=
EXTT12=
EXTT13=
EXTT14=
EXTT15=
EXTT16=
EXTT17=
EXTT18=
EXTT19=
PLAYORDER=
